<?xml version="1.0" encoding="UTF-8" standalone="no"?>
<!-- Created with Inkscape (http://www.inkscape.org/) -->

<svg
   xmlns:dc="http://purl.org/dc/elements/1.1/"
   xmlns:cc="http://creativecommons.org/ns#"
   xmlns:rdf="http://www.w3.org/1999/02/22-rdf-syntax-ns#"
   xmlns:svg="http://www.w3.org/2000/svg"
   xmlns="http://www.w3.org/2000/svg"
   xmlns:sodipodi="http://sodipodi.sourceforge.net/DTD/sodipodi-0.dtd"
   xmlns:inkscape="http://www.inkscape.org/namespaces/inkscape"
   width="128"
   height="128"
   viewBox="0 0 33.866666 33.866668"
   version="1.1"
   id="svg8"
   inkscape:version="0.92.2 (5c3e80d, 2017-08-06)"
   sodipodi:docname="extension-control.svg">
  <defs
     id="defs2" />
  <sodipodi:namedview
     id="base"
     pagecolor="#ffffff"
     bordercolor="#666666"
     borderopacity="1.0"
     inkscape:pageopacity="0.0"
     inkscape:pageshadow="2"
     inkscape:zoom="1.979899"
     inkscape:cx="-86.133938"
     inkscape:cy="171.96243"
     inkscape:document-units="px"
     inkscape:current-layer="layer1"
     showgrid="false"
     units="px"
     inkscape:window-width="1920"
     inkscape:window-height="1027"
     inkscape:window-x="-8"
     inkscape:window-y="-8"
     inkscape:window-maximized="1" />
  <metadata
     id="metadata5">
    <rdf:RDF>
      <cc:Work
         rdf:about="">
        <dc:format>image/svg+xml</dc:format>
        <dc:type
           rdf:resource="http://purl.org/dc/dcmitype/StillImage" />
        <dc:title />
      </cc:Work>
    </rdf:RDF>
  </metadata>
  <g
     inkscape:label="Ebene 1"
     inkscape:groupmode="layer"
     id="layer1"
     transform="translate(0,-263.13332)">
    <path
       id="path3982"
       d="m 13.446354,264.46658 -13.14397949,6.572 v 16.89943 l 13.14397949,6.572 13.14397,-6.572 v -16.89943 z m 0,4.22486 9.38859,4.69428 v 12.20515 l -9.38859,4.69428 v -12.67457 l -9.3885995,-4.22486 z"
       style="fill:#5c616c;stroke-width:1.87771428;stroke:none"
       inkscape:connector-curvature="0" />
    <rect
       style="fill:#ffffff;stroke:none;stroke-width:0.26458335"
       id="rect12"
       width="5.8799267"
       height="6.013566"
       x="21.916096"
       y="282.96835" />
    <path
       id="path4003"
       d="m 22.266249,276.67513 -0.200652,2.46115 a 7.3567495,7.3567495 0 0 0 -2.153521,1.244 l -2.247152,-1.05675 -2.340785,4.06631 2.03314,1.40446 a 7.3567495,7.3567495 0 0 0 -0.107025,1.24395 7.3567495,7.3567495 0 0 0 0.107025,1.24399 l -2.03314,1.40446 2.340785,4.06626 2.233776,-1.05669 a 7.3567495,7.3567495 0 0 0 2.166897,1.2306 l 0.200652,2.47455 h 4.681567 l 0.200653,-2.46121 a 7.3567495,7.3567495 0 0 0 2.153522,-1.24394 l 2.247152,1.05669 2.340785,-4.06626 -2.033139,-1.40446 a 7.3567495,7.3567495 0 0 0 0.107025,-1.24399 7.3567495,7.3567495 0 0 0 -0.107025,-1.24395 l 2.033139,-1.40446 -2.340785,-4.06631 -2.233778,1.05675 a 7.3567495,7.3567495 0 0 0 -2.166896,-1.23061 l -0.200653,-2.47454 z m 2.340785,6.68797 a 2.6751817,2.6751817 0 0 1 2.675182,2.67515 2.6751817,2.6751817 0 0 1 -2.675182,2.67519 2.6751817,2.6751817 0 0 1 -2.67518,-2.67519 2.6751817,2.6751817 0 0 1 2.67518,-2.67515 z"
       style="fill:#c83771;stroke:#ffffff;stroke-width:1.33759069"
       inkscape:connector-curvature="0" />
    <rect
       style="fill:#ffffff;stroke:none;stroke-width:0.26458335"
       id="rect10"
       width="21.114292"
       height="9.354434"
       x="-77.240898"
       y="259.0477" />
  </g>
</svg>
